<svg xmlns="http://www.w3.org/2000/svg" xmlns:xlink="http://www.w3.org/1999/xlink" width="644.849" height="590.684" viewBox="0 0 644.849 590.684">
  <defs>
    <linearGradient id="linear-gradient" x1="0.5" x2="0.5" y2="1" gradientUnits="objectBoundingBox">
      <stop offset="0" stop-color="#ff9f40"/>
      <stop offset="0.203" stop-color="#ff8c49"/>
      <stop offset="0.367" stop-color="#ff8a4a"/>
      <stop offset="0.605" stop-color="#ff7256"/>
      <stop offset="1" stop-color="#ff406e"/>
    </linearGradient>
  </defs>
  <g id="Path_17" data-name="Path 17" transform="translate(476.639 350.077) rotate(154)" fill="url(#linear-gradient)">
    <path d="M 153.0765686035156 317.8864440917969 C 149.1751556396484 317.8864440917969 145.3643188476562 317.2889709472656 141.7484741210938 316.110595703125 C 138.2964782714844 314.9855041503906 134.9060211181641 313.2925720214844 131.6714019775391 311.0788879394531 C 125.6808624267578 306.9790344238281 120.0722503662109 301.0724182128906 114.5251693725586 293.0215148925781 C 109.8888626098633 286.2925109863281 105.2164764404297 277.9059753417969 100.2410125732422 267.3827514648438 C 95.79924774169922 257.9884338378906 91.53163146972656 247.7970428466797 87.40455627441406 237.9412689208984 C 83.2833251953125 228.0995788574219 79.02178192138672 217.9227294921875 74.58570861816406 208.5364990234375 C 69.60470581054688 197.9973449707031 64.92524719238281 189.5927429199219 60.27986145019531 182.8422698974609 C 54.68893814086914 174.7178192138672 49.02563095092773 168.7484283447266 42.96647644042969 164.5929718017578 C 39.67232513427734 162.3338165283203 36.21663284301758 160.604736328125 32.69540023803711 159.4539642333984 C 28.99863052368164 158.2457427978516 25.10355377197266 157.6331939697266 21.11832427978516 157.6331939697266 C 16.53232383728027 157.6331939697266 11.66647720336914 158.444580078125 6.656015872955322 160.0448150634766 C -0.221676230430603 162.2414245605469 -7.690060615539551 163.3551940917969 -15.54167652130127 163.3551940917969 C -21.33498382568359 163.3551940917969 -27.38044548034668 162.7464294433594 -33.50998306274414 161.5458068847656 C -39.51375198364258 160.3698120117188 -45.66106033325195 158.6141204833984 -51.7811393737793 156.3274230957031 C -57.8250617980957 154.0691986083984 -63.89552307128906 151.2736663818359 -69.82382965087891 148.0183563232422 C -75.73313903808594 144.7734985351562 -81.54798126220703 141.0462799072266 -87.10691070556641 136.9402008056641 C -92.70167541503906 132.8076629638672 -98.08259582519531 128.2575836181641 -103.1002883911133 123.41650390625 C -108.1965255737305 118.4995803833008 -112.9655990600586 113.2361221313477 -117.2749862670898 107.7723541259766 C -126.3003692626953 96.32942962646484 -133.2938232421875 84.10073852539062 -138.0612182617188 71.42604064941406 C -141.9328308105469 61.13273620605469 -144.2772979736328 50.63927459716797 -145.029296875 40.23712158203125 C -145.8272094726562 29.20150566101074 -144.8341369628906 18.18942832946777 -142.0777587890625 7.506967067718506 C -139.1440582275391 -3.862417459487915 -134.1704406738281 -15.00934028625488 -127.2949066162109 -25.62426376342773 C -123.6963653564453 -31.17995643615723 -119.5129852294922 -36.68387985229492 -114.8609848022461 -41.9830322265625 C -110.0617523193359 -47.44987869262695 -104.6380615234375 -52.84203338623047 -98.74052429199219 -58.00957107543945 C -93.58444213867188 -62.52749252319336 -87.86006164550781 -66.51995849609375 -81.72637176513672 -69.87602996826172 C -75.75637054443359 -73.14257049560547 -69.24275207519531 -75.89149475097656 -62.3664436340332 -78.04664611816406 C -55.67490768432617 -80.143798828125 -48.46744537353516 -81.73280334472656 -40.9442138671875 -82.76934051513672 C -33.62528991699219 -83.77772521972656 -25.82136917114258 -84.28903198242188 -17.74936866760254 -84.28903198242188 C 0.5609391331672668 -84.28903198242188 20.89455413818359 -81.67918395996094 42.68670654296875 -76.53195953369141 C 63.09939956665039 -71.7105712890625 84.94216918945312 -64.63218688964844 107.6083984375 -55.49349594116211 C 149.3930969238281 -38.64641571044922 193.5834808349609 -14.97764778137207 235.4022521972656 12.95412063598633 C 255.0092468261719 26.05004501342773 273.5599365234375 39.72858428955078 290.5389404296875 53.60958099365234 C 307.3799438476562 67.37773895263672 322.2314147949219 80.98143005371094 334.6807861328125 94.04265594482422 C 347.3423156738281 107.3265075683594 357.1921691894531 119.7097396850586 363.9566955566406 130.8484344482422 C 370.9671630859375 142.3921203613281 374.5217895507812 152.3755035400391 374.5217895507812 160.5211181640625 C 374.5217895507812 165.5052032470703 374.0417785644531 170.5073547363281 373.0952453613281 175.3885803222656 C 372.1756286621094 180.1302795410156 370.7905578613281 184.8880462646484 368.9783325195312 189.5296630859375 C 365.5144653320312 198.4015045166016 360.35400390625 207.2015838623047 353.6402587890625 215.6853485107422 C 347.3554077148438 223.6271209716797 339.5527038574219 231.4902038574219 330.4487915039062 239.0562744140625 C 321.9938659667969 246.0830383300781 312.211181640625 253.0245819091797 301.3724670410156 259.6881103515625 C 282.3079528808594 271.4088134765625 259.4718627929688 282.5994262695312 233.4983978271484 292.9490356445312 C 212.7677917480469 301.2095947265625 190.0230865478516 308.9485168457031 165.8961639404297 315.9509582519531 C 161.4753265380859 317.2340393066406 157.1659393310547 317.8851928710938 153.0878601074219 317.8864135742188 C 153.0842895507812 317.8864440917969 153.0801544189453 317.8864440917969 153.0765686035156 317.8864440917969 Z" stroke="none"/>
    <path d="M -17.72494506835938 -83.78903198242188 C -17.73274230957031 -83.78903198242188 -17.74140930175781 -83.78903198242188 -17.74922180175781 -83.78903198242188 C -25.79913330078125 -83.78802490234375 -33.58006286621094 -83.2777099609375 -40.87590026855469 -82.27227783203125 C -48.37205505371094 -81.2392578125 -55.55221557617188 -79.656494140625 -62.21697998046875 -77.56796264648438 C -69.06221008300781 -75.42288208007812 -75.54536437988281 -72.68710327148438 -81.4864501953125 -69.43679809570312 C -87.58828735351562 -66.09841918945312 -93.28251647949219 -62.12725830078125 -98.41105651855469 -57.63349914550781 C -104.2922210693359 -52.48027038574219 -109.7003021240234 -47.10372924804688 -114.4852142333984 -41.65310668945312 C -119.1212005615234 -36.3721923828125 -123.2898406982422 -30.88780212402344 -126.8752899169922 -25.3524169921875 C -133.7214508056641 -14.78280639648438 -138.6734466552734 -3.685256958007812 -141.5936126708984 7.63189697265625 C -144.3364410400391 18.26181030273438 -145.3246002197266 29.21966552734375 -144.5306854248047 40.2010498046875 C -143.7820587158203 50.55527496337891 -141.4479827880859 61.00166320800781 -137.5932159423828 71.25004577636719 C -132.8439788818359 83.87650299072266 -125.8759002685547 96.06019592285156 -116.8824310302734 107.4627380371094 C -112.5869903564453 112.9088134765625 -107.8332061767578 118.1554260253906 -102.7531280517578 123.0566558837891 C -97.75114440917969 127.8826599121094 -92.38705444335938 132.4184265136719 -86.80990600585938 136.5379638671875 C -81.26882934570312 140.6308898925781 -75.47297668457031 144.3459625244141 -69.58322143554688 147.5800476074219 C -63.67597961425781 150.8238067626953 -57.62759399414062 153.6091918945312 -51.60614013671875 155.8590393066406 C -45.51167297363281 158.1361236572266 -39.39089965820312 159.8843536376953 -33.41390991210938 161.0551147460938 C -27.31590270996094 162.2495880126953 -21.30282592773438 162.8551940917969 -15.54167175292969 162.8551940917969 C -7.741668701171875 162.8551940917969 -0.32452392578125 161.7494354248047 6.503936767578125 159.5685119628906 C 11.5634765625 157.9525756835938 16.48001098632812 157.1331939697266 21.11831665039062 157.1331939697266 C 25.15655517578125 157.1332702636719 29.10394287109375 157.7542724609375 32.85101318359375 158.9788818359375 C 36.41755676269531 160.1445007324219 39.91624450683594 161.8946533203125 43.24978637695312 164.1806640625 C 49.36055755615234 168.3713531494141 55.06616973876953 174.3825836181641 60.69255828857422 182.5580444335938 C 65.35347747802734 189.3305816650391 70.04617309570312 197.7576599121094 75.03886413574219 208.3208923339844 C 79.47986602783203 217.7168884277344 83.74370574951172 227.8984985351562 87.86709594726562 237.7449645996094 C 91.99201965332031 247.5947265625 96.25724792480469 257.7799072265625 100.694091796875 267.1634216308594 C 105.6578674316406 277.6613464355469 110.3170166015625 286.024658203125 114.9377899169922 292.7312622070312 C 120.4493255615234 300.7308044433594 126.0155563354492 306.5958251953125 131.9544067382812 310.6612548828125 C 135.1497039794922 312.8486633300781 138.4971618652344 314.5211181640625 141.9039459228516 315.6322021484375 C 145.4727783203125 316.7962036132812 149.2356262207031 317.3864135742188 153.0879364013672 317.3864135742188 C 157.1145477294922 317.3864135742188 161.3770141601562 316.7418823242188 165.7568664550781 315.4707336425781 C 189.8683166503906 308.4728088378906 212.5976257324219 300.7391357421875 233.3133239746094 292.4845886230469 C 259.2601623535156 282.1455078125 282.0704956054688 270.9678955078125 301.1105346679688 259.26220703125 C 311.9291687011719 252.6110534667969 321.6924743652344 245.683349609375 330.1292419433594 238.6717376708984 C 339.2064819335938 231.1278076171875 346.9848022460938 223.2896575927734 353.2481689453125 215.3751220703125 C 359.9310913085938 206.9302673339844 365.0667724609375 198.1734313964844 368.5125732421875 189.3478088378906 C 370.3138427734375 184.7341918945312 371.6905517578125 180.0055847167969 372.6043090820312 175.2933502197266 C 373.5448608398438 170.4434356689453 374.0217895507812 165.4733581542969 374.0217895507812 160.5211181640625 C 374.0217895507812 152.4682769775391 370.4916381835938 142.5720520019531 363.5293273925781 131.1071166992188 C 356.7833862304688 119.9986572265625 346.95556640625 107.6435089111328 334.31884765625 94.3848876953125 C 321.883544921875 81.33773803710938 307.0473022460938 67.74742889404297 290.2224731445312 53.99158477783203 C 273.255615234375 40.11973571777344 254.718017578125 26.4501953125 235.1245574951172 13.36265563964844 C 193.3331604003906 -14.55203247070312 149.1741638183594 -38.20449829101562 107.4214019775391 -55.03787231445312 C 84.77848052978516 -64.16671752929688 62.95993804931641 -71.236572265625 42.57186126708984 -76.05087280273438 C 20.8265380859375 -81.18560791015625 0.5405120849609375 -83.78912353515625 -17.72494506835938 -83.78903198242188 M -17.74934387207031 -84.78900146484375 C 134.3672943115234 -84.80819702148438 375.0217895507812 92.98043823242188 375.0217895507812 160.5211181640625 C 375.0217895507812 242.2966613769531 248.9838562011719 292.3568115234375 166.0355529785156 316.4311218261719 C 161.4588165283203 317.7594604492188 157.1453399658203 318.3864135742188 153.0879669189453 318.3864135742188 C 88.08926391601562 318.3864135742188 85.83889007568359 158.1347351074219 21.11834716796875 158.1331787109375 C 16.65824890136719 158.133056640625 11.90248107910156 158.8940734863281 6.80816650390625 160.5211181640625 C -0.27691650390625 162.7839813232422 -7.794418334960938 163.8552398681641 -15.54165649414062 163.8552398681641 C -99.24317932128906 163.8552398681641 -210.0673065185547 38.87326049804688 -99.070068359375 -58.38565063476562 C -77.96015930175781 -76.88275146484375 -49.80938720703125 -84.78497314453125 -17.74934387207031 -84.78900146484375 Z" stroke="none" fill="#ff5365"/>
  </g>
</svg>
