<svg xmlns="http://www.w3.org/2000/svg" xmlns:xlink="http://www.w3.org/1999/xlink" width="34.78" height="27.827" viewBox="0 0 34.78 27.827">
  <defs>
    <linearGradient id="linear-gradient" x1="0.5" x2="0.5" y2="1" gradientUnits="objectBoundingBox">
      <stop offset="0" stop-color="#ff9f40"/>
      <stop offset="0.203" stop-color="#ff8c49"/>
      <stop offset="0.367" stop-color="#ff8a4a"/>
      <stop offset="0.605" stop-color="#ff7256"/>
      <stop offset="1" stop-color="#ff406e"/>
    </linearGradient>
  </defs>
  <path id="glass-cheers-solid" d="M34.725,23.509a2.166,2.166,0,0,0-2.837-1.174l-1.2.5-2.1-5.537a6.363,6.363,0,0,0,1.875-8.3L25.753.816A1.744,1.744,0,0,0,23.579.077L17.368,2.653,11.157.077A1.738,1.738,0,0,0,8.983.816L4.278,8.994a6.361,6.361,0,0,0,1.875,8.3l-2.1,5.537-1.2-.5A2.168,2.168,0,0,0,.012,23.5a.435.435,0,0,0,.234.571l8.819,3.663A.429.429,0,0,0,9.63,27.5a2.179,2.179,0,0,0-1.174-2.842l-1.2-.5L9.4,18.531a6.441,6.441,0,0,0,.712.071,6.321,6.321,0,0,0,6.162-4.635l1.1-4.1,1.1,4.1A6.321,6.321,0,0,0,24.628,18.6a6.441,6.441,0,0,0,.712-.071l2.136,5.63-1.2.5A2.174,2.174,0,0,0,25.1,27.5a.431.431,0,0,0,.565.234l8.825-3.663A.434.434,0,0,0,34.725,23.509ZM14.972,8.755,8.88,6.228l1.983-3.445L16,4.913Zm4.793,0L18.738,4.913l5.135-2.13,1.983,3.445Z" transform="translate(0.022 0.057)" fill="url(#linear-gradient)"/>
</svg>
