<svg xmlns="http://www.w3.org/2000/svg" xmlns:xlink="http://www.w3.org/1999/xlink" width="30.209" height="23.306" viewBox="0 0 30.209 23.306">
  <defs>
    <linearGradient id="linear-gradient" x1="0.5" x2="0.5" y2="1" gradientUnits="objectBoundingBox">
      <stop offset="0" stop-color="#ff9f40"/>
      <stop offset="0.203" stop-color="#ff8c49"/>
      <stop offset="0.367" stop-color="#ff8a4a"/>
      <stop offset="0.605" stop-color="#ff7256"/>
      <stop offset="1" stop-color="#ff406e"/>
    </linearGradient>
  </defs>
  <path id="money-check-alt-solid" d="M28.7,32H1.51A1.593,1.593,0,0,0,0,33.665V53.641a1.593,1.593,0,0,0,1.51,1.665H28.7a1.593,1.593,0,0,0,1.51-1.665V33.665A1.593,1.593,0,0,0,28.7,32ZM8.307,47.392v.839a.4.4,0,0,1-.378.416H7.175a.4.4,0,0,1-.378-.416v-.847a2.553,2.553,0,0,1-1.481-.59.445.445,0,0,1-.027-.632l.555-.583a.36.36,0,0,1,.478-.038,1.06,1.06,0,0,0,.605.194H8.254a.633.633,0,0,0,.557-.686.679.679,0,0,0-.414-.662l-2.124-.7a2.343,2.343,0,0,1-1.491-2.257A2.23,2.23,0,0,1,6.8,39.081v-.839a.4.4,0,0,1,.378-.416h.755a.4.4,0,0,1,.378.416v.847a2.549,2.549,0,0,1,1.481.59.445.445,0,0,1,.027.632L9.26,40.9a.36.36,0,0,1-.478.038,1.057,1.057,0,0,0-.605-.194H6.85a.633.633,0,0,0-.557.686.679.679,0,0,0,.414.662l2.124.7a2.343,2.343,0,0,1,1.491,2.257A2.23,2.23,0,0,1,8.307,47.392Zm11.328-.826a.4.4,0,0,1-.378.416H13.972a.4.4,0,0,1-.378-.416v-.832a.4.4,0,0,1,.378-.416h5.287a.4.4,0,0,1,.378.416Zm7.552,0a.4.4,0,0,1-.378.416H23.034a.4.4,0,0,1-.378-.416v-.832a.4.4,0,0,1,.378-.416H26.81a.4.4,0,0,1,.378.416Zm0-4.994a.4.4,0,0,1-.378.416H13.972a.4.4,0,0,1-.378-.416V40.74a.4.4,0,0,1,.378-.416H26.81a.4.4,0,0,1,.378.416Z" transform="translate(0 -32)" fill="url(#linear-gradient)"/>
</svg>
